<?xml version="1.0" encoding="UTF-8"?>
<svg id="Layer_1" data-name="Layer 1" xmlns="http://www.w3.org/2000/svg" xmlns:xlink="http://www.w3.org/1999/xlink" viewBox="0 0 125 107.53">
  <defs>
    <style>
      .cls-1 {
        fill: url(#linear-gradient-2);
      }

      .cls-2 {
        fill: url(#linear-gradient);
      }

      .cls-3 {
        fill: #533e3c;
      }
    </style>
    <linearGradient id="linear-gradient" x1="24.69" y1="885.76" x2="125" y2="885.76" gradientTransform="translate(0 -832.25)" gradientUnits="userSpaceOnUse">
      <stop offset="0" stop-color="#eae2d6"/>
      <stop offset="0" stop-color="#e8e0d4"/>
      <stop offset=".04" stop-color="#c5bab0"/>
      <stop offset=".08" stop-color="#a69991"/>
      <stop offset=".13" stop-color="#8c7c76"/>
      <stop offset=".18" stop-color="#776561"/>
      <stop offset=".24" stop-color="#675350"/>
      <stop offset=".31" stop-color="#5b4744"/>
      <stop offset=".4" stop-color="#54403d"/>
      <stop offset=".63" stop-color="#533e3c"/>
    </linearGradient>
    <linearGradient id="linear-gradient-2" x1="110.12" y1="911.33" x2="5.95" y2="911.33" xlink:href="#linear-gradient"/>
  </defs>
  <g id="Layer_2" data-name="Layer 2">
    <g>
      <path class="cls-2" d="m53.94,5.29l-29.25,53.3s5.52,14.5,17.12,6.1l17.16-29.9s2.16-5.12,3.9-.21l27.21,51.13s11.09,20.34,26.7,21.29h8.22L68.73,6.52s-7.76-13.82-14.79-1.23Z"/>
      <path class="cls-3" d="m40.6,70.2c-.06.03-6.25,15.16-6.25,15.16,0,0-10.56,20.62-26.14,21.97l-8.21.21,22.56-42.83s18.1,5.46,18.04,5.5Z"/>
      <path class="cls-1" d="m25.56,56.89l-16.79,34.17s-11.92,26.49,13.34,11.22l30.16-23.2s33.53-23.64,57.87,1.37c0,0-1.4-19.57-19.98-27.36,0,0-12.4-4.94-26.2.87-3.28,1.39-15.8,7.68-21.29,9.48-2.24.73-13.24,4.82-17.09-6.56,0,0,0,0,0,0Z"/>
    </g>
  </g>
</svg>