<svg height="493pt" viewBox="-44 0 493 493.29516" width="493pt" xmlns="http://www.w3.org/2000/svg"><path fill="#533E3C" d="m74.8125 151.960938h256v21.335937h-256zm0 0"/><path fill="#533E3C" d="m42.8125 354.628906c-23.5625 0-42.664062-19.101562-42.664062-42.667968v-117.332032c0-23.566406 19.101562-42.667968 42.664062-42.667968 23.566406 0 42.667969 19.101562 42.667969 42.667968v117.332032c0 23.566406-19.101563 42.667968-42.667969 42.667968zm0-181.332031c-11.78125 0-21.332031 9.550781-21.332031 21.332031v117.332032c0 11.78125 9.550781 21.335937 21.332031 21.335937 11.785156 0 21.335938-9.554687 21.335938-21.335937v-117.332032c0-11.78125-9.550782-21.332031-21.335938-21.332031zm0 0"/><path fill="#533E3C" d="m362.8125 354.628906c-23.5625 0-42.664062-19.101562-42.664062-42.667968v-117.332032c0-23.566406 19.101562-42.667968 42.664062-42.667968 23.566406 0 42.667969 19.101562 42.667969 42.667968v117.332032c0 23.566406-19.101563 42.667968-42.667969 42.667968zm0-181.332031c-11.78125 0-21.332031 9.550781-21.332031 21.332031v117.332032c0 11.78125 9.550781 21.335937 21.332031 21.335937 11.785156 0 21.335938-9.554687 21.335938-21.335937v-117.332032c0-11.78125-9.550782-21.332031-21.335938-21.332031zm0 0"/><path fill="#533E3C" d="m256.148438 493.296875c-23.566407 0-42.667969-19.105469-42.667969-42.667969v-53.332031h-21.332031v53.332031c0 23.5625-19.101563 42.667969-42.667969 42.667969-23.5625 0-42.667969-19.105469-42.667969-42.667969v-53.332031h-10.664062c-17.675782 0-32-14.328125-32-32v-202.667969c0-76.582031 62.082031-138.667968 138.664062-138.667968 76.585938 0 138.667969 62.085937 138.667969 138.667968v202.667969c0 17.671875-14.328125 32-32 32h-10.667969v53.332031c0 23.5625-19.101562 42.667969-42.664062 42.667969zm-85.335938-117.335937h64v74.667968c0 11.78125 9.554688 21.332032 21.335938 21.332032s21.332031-9.550782 21.332031-21.332032v-74.667968h32c5.890625 0 10.667969-4.773438 10.667969-10.664063v-202.667969c0-64.800781-52.53125-117.332031-117.335938-117.332031-64.800781 0-117.332031 52.53125-117.332031 117.332031v202.667969c0 5.890625 4.777343 10.664063 10.667969 10.664063h32v74.667968c0 11.78125 9.550781 21.332032 21.332031 21.332032s21.332031-9.550782 21.332031-21.332032zm0 0"/><path fill="#533E3C" d="m160.148438 98.628906h-21.335938v21.332032h21.335938zm0 0"/><path fill="#533E3C" d="m266.8125 98.628906h-21.332031v21.332032h21.332031zm0 0"/><path fill="#533E3C" d="m103.363281 12.210938 17.703125-11.898438 29.546875 43.96875-17.707031 11.898438zm0 0"/><path fill="#533E3C" d="m254.785156 43.933594 29.523438-43.933594 17.714844 11.90625-29.523438 43.933594zm0 0"/></svg>