<?xml version="1.0" encoding="UTF-8"?>
<svg id="Layer_1" data-name="Layer 1" xmlns="http://www.w3.org/2000/svg" viewBox="0 0 47.72 49">
  <defs>
    <style>
      .cls-1 {
        fill: none;
        stroke: #533e3c;
        stroke-linecap: round;
        stroke-linejoin: round;
        stroke-width: 2.5px;
      }
    </style>
  </defs>
  <path id="settings-2" class="cls-1" d="m24.55,17.58c-3.82-.38-7.23,2.42-7.6,6.24-.38,3.82,2.42,7.23,6.24,7.6,3.82.38,7.23-2.42,7.6-6.24.04-.45.04-.91,0-1.37-.33-3.3-2.94-5.91-6.24-6.24Zm16.75,6.92c0,.76-.06,1.51-.17,2.26l4.91,3.85c.44.37.55,1,.27,1.49l-4.65,8.04c-.29.49-.89.7-1.43.5l-4.88-1.96c-.55-.22-1.17-.15-1.65.19-.74.51-1.53.97-2.34,1.36-.52.25-.88.75-.96,1.32l-.73,5.2c-.1.57-.59.98-1.16,1h-9.3c-.57,0-1.05-.41-1.16-.96l-.73-5.2c-.08-.58-.45-1.08-.98-1.33-.81-.39-1.59-.85-2.33-1.37-.48-.33-1.1-.4-1.64-.19l-4.88,1.96c-.53.2-1.14,0-1.43-.5l-4.65-8.04c-.29-.5-.18-1.13.27-1.49l4.15-3.26c.46-.37.7-.94.65-1.53-.04-.45-.06-.9-.06-1.36s.02-.9.06-1.34c.05-.58-.2-1.15-.66-1.51l-4.13-3.25c-.44-.37-.54-.99-.26-1.49l4.65-8.04c.29-.49.89-.7,1.43-.5l4.88,1.96c.55.22,1.17.15,1.65-.19.74-.51,1.53-.97,2.34-1.36.52-.25.88-.75.96-1.32l.73-5.2c.1-.57.59-.98,1.16-1h9.3c.57,0,1.05.41,1.16.96l.73,5.2c.08.58.45,1.08.98,1.33.81.39,1.59.85,2.33,1.37.48.33,1.09.4,1.64.19l4.88-1.96c.53-.2,1.14,0,1.43.5l4.65,8.04c.29.5.18,1.13-.27,1.49l-4.15,3.26c-.46.37-.71.94-.66,1.53.04.45.06.9.06,1.35h0Z"/>
</svg>